<svg width="48" height="48" viewBox="0 0 48 48" fill="none" xmlns="http://www.w3.org/2000/svg">
<path d="M24 4.49341C19.2509 4.49361 14.6569 6.18364 11.0399 9.2611C7.42293 12.3386 5.019 16.6027 4.25826 21.2904C3.49752 25.9781 4.42963 30.7836 6.88779 34.8469C9.34596 38.9103 13.1698 41.9664 17.675 43.4684C18.675 43.6434 19.05 43.0434 19.05 42.5184C19.05 42.0434 19.025 40.4684 19.025 38.7934C14 39.7184 12.7 37.5685 12.3 36.4435C11.8561 35.3493 11.1525 34.3797 10.25 33.6184C9.54999 33.2434 8.54999 32.3184 10.225 32.2934C10.8645 32.3628 11.478 32.5854 12.0133 32.9422C12.5485 33.2991 12.9899 33.7797 13.3 34.3434C13.5735 34.8348 13.9414 35.2674 14.3824 35.6164C14.8234 35.9654 15.3289 36.2239 15.8701 36.3772C16.4112 36.5305 16.9772 36.5755 17.5358 36.5096C18.0943 36.4438 18.6343 36.2683 19.125 35.9934C19.2115 34.9766 19.6647 34.026 20.4 33.3185C15.95 32.8185 11.3 31.0934 11.3 23.4435C11.2719 21.4558 12.0054 19.5326 13.35 18.0685C12.7386 16.3409 12.8101 14.445 13.55 12.7685C13.55 12.7685 15.2249 12.2434 19.05 14.8185C22.3226 13.9184 25.7774 13.9184 29.05 14.8185C32.875 12.2185 34.55 12.7685 34.55 12.7685C35.29 14.445 35.3615 16.3409 34.75 18.0685C36.0987 19.5301 36.8328 21.4549 36.8 23.4435C36.8 31.1184 32.125 32.8185 27.675 33.3185C28.1523 33.8022 28.5199 34.3831 28.7528 35.0215C28.9858 35.6599 29.0786 36.341 29.025 37.0185C29.025 39.6935 29 41.8434 29 42.5185C29 43.0435 29.375 43.6685 30.375 43.4685C34.8723 41.9542 38.6851 38.8909 41.1328 34.8255C43.5805 30.7601 44.5038 25.9571 43.7378 21.2739C42.9717 16.5907 40.5663 12.3322 36.9509 9.25843C33.3355 6.18471 28.7454 4.49588 24 4.49341V4.49341Z" fill="url(#paint0_linear_57_39)"/>
<defs>
<linearGradient id="paint0_linear_57_39" x1="11.7076" y1="4.49342" x2="48.5838" y2="5.19583" gradientUnits="userSpaceOnUse">
<stop stop-color="#2198F2"/>
<stop offset="1" stop-color="#6A0EFF"/>
</linearGradient>
</defs>
</svg>
