<svg width="48" height="48" viewBox="0 0 48 48" fill="none" xmlns="http://www.w3.org/2000/svg">
<path d="M40.94 4.00001H7.06C6.67916 3.99472 6.301 4.0645 5.94713 4.20537C5.59326 4.34625 5.27061 4.55545 4.99759 4.82103C4.72458 5.08661 4.50656 5.40337 4.35598 5.75322C4.2054 6.10307 4.12522 6.47916 4.12 6.86001V41.14C4.12522 41.5208 4.2054 41.8969 4.35598 42.2468C4.50656 42.5966 4.72458 42.9134 4.99759 43.179C5.27061 43.4446 5.59326 43.6538 5.94713 43.7946C6.301 43.9355 6.67916 44.0053 7.06 44H40.94C41.3208 44.0053 41.699 43.9355 42.0529 43.7946C42.4067 43.6538 42.7294 43.4446 43.0024 43.179C43.2754 42.9134 43.4934 42.5966 43.644 42.2468C43.7946 41.8969 43.8748 41.5208 43.88 41.14V6.86001C43.8748 6.47916 43.7946 6.10307 43.644 5.75322C43.4934 5.40337 43.2754 5.08661 43.0024 4.82103C42.7294 4.55545 42.4067 4.34625 42.0529 4.20537C41.699 4.0645 41.3208 3.99472 40.94 4.00001V4.00001ZM16.18 37.48H10.18V19.48H16.18V37.48ZM13.18 16.96C12.3525 16.96 11.5589 16.6313 10.9738 16.0462C10.3887 15.4611 10.06 14.6675 10.06 13.84C10.06 13.0125 10.3887 12.2189 10.9738 11.6338C11.5589 11.0487 12.3525 10.72 13.18 10.72C13.6194 10.6702 14.0644 10.7137 14.4857 10.8478C14.9071 10.9818 15.2955 11.2034 15.6253 11.4979C15.9551 11.7925 16.2191 12.1534 16.3997 12.557C16.5804 12.9606 16.6738 13.3978 16.6738 13.84C16.6738 14.2822 16.5804 14.7194 16.3997 15.123C16.2191 15.5266 15.9551 15.8875 15.6253 16.1821C15.2955 16.4766 14.9071 16.6982 14.4857 16.8322C14.0644 16.9663 13.6194 17.0098 13.18 16.96V16.96ZM37.82 37.48H31.82V27.82C31.82 25.4 30.96 23.82 28.78 23.82C28.1053 23.8249 27.4484 24.0366 26.8977 24.4263C26.347 24.8161 25.929 25.3654 25.7 26C25.5435 26.4701 25.4757 26.9652 25.5 27.46V37.46H19.5C19.5 37.46 19.5 21.1 19.5 19.46H25.5V22C26.0451 21.0542 26.8378 20.275 27.7929 19.7464C28.7479 19.2178 29.8291 18.9597 30.92 19C34.92 19 37.82 21.58 37.82 27.12V37.48Z" fill="url(#paint0_linear_57_59)"/>
<defs>
<linearGradient id="paint0_linear_57_59" x1="11.7814" y1="3.99974" x2="48.4369" y2="4.67662" gradientUnits="userSpaceOnUse">
<stop stop-color="#2198F2"/>
<stop offset="1" stop-color="#6A0EFF"/>
</linearGradient>
</defs>
</svg>
