<svg width="47" height="33" viewBox="0 0 47 33" fill="none" xmlns="http://www.w3.org/2000/svg">
<g clip-path="url(#clip0_9_204)" filter="url(#filter0_d_9_204)">
<path d="M19.1921 29.1813C17.2307 31.1603 14.038 31.1736 12.0602 29.2123L8.31082 25.494C7.43799 23.3061 6.99335 20.9911 8.46072 19.3145L10.0071 17.8125C10.842 16.7844 11.5359 15.6088 12.274 15.1754L12.5194 15.4557L19.1643 22.0446C21.142 24.0065 21.1559 27.201 19.1933 29.1813H19.1921Z" fill="url(#paint0_linear_9_204)"/>
<path d="M19.1156 8.92698L12.5833 15.519C12.5807 15.519 12.5789 15.5196 12.5776 15.5209L12.2133 15.8809L8.44936 11.8759C6.84475 10.1886 7.28749 6.76128 8.26151 5.56234L8.33172 5.4687L11.9489 1.82061C13.9115 -0.159703 17.1049 -0.173623 19.0846 1.78961C21.0624 3.75095 21.0763 6.9454 19.1156 8.92761V8.92698Z" fill="url(#paint1_linear_9_204)"/>
<path d="M12.5833 15.5184L12.5991 15.5342L12.5833 15.5184L12.6003 15.5013L12.5833 15.5184Z" fill="url(#paint2_linear_9_204)"/>
<path d="M8.37851 25.5597L8.33487 25.5161C7.46204 23.3283 7.2919 21.0506 8.75864 19.3739L10.1843 17.9358C11.0191 16.9077 11.8401 15.9536 12.5782 15.5196L12.5814 15.5158L8.73903 11.7058C7.13442 10.0184 7.28748 6.76065 8.2615 5.56107L8.37598 5.44592L8.38294 5.45288C8.35891 5.47756 8.33424 5.50856 8.30831 5.5383C8.29945 5.55095 8.28933 5.56424 8.28048 5.57689C7.7941 6.17668 7.51833 7.27693 7.55818 8.45056C7.58601 9.21675 7.77702 10.658 8.758 11.6906L12.6003 15.5006L12.5833 15.5183L12.5991 15.5342L12.5902 15.543C11.8319 15.9865 10.9622 17.0184 10.2032 17.9517L8.77635 19.3917C7.15466 21.2448 7.65305 23.7408 8.35764 25.5072L8.37851 25.5597Z" fill="url(#paint3_linear_9_204)"/>
<path d="M8.75863 19.3746L12.5782 15.5203L12.582 15.5165L8.73966 11.7064C7.13568 10.0184 7.28874 6.76068 8.26213 5.56174L8.37661 5.44659L8.36586 5.43646L1.15554 12.7744C0.0980225 13.8417 -0.230869 15.3564 0.157476 16.7034C0.346589 17.3139 0.679908 17.891 1.16629 18.3731L4.9106 22.1034L8.06543 25.2498L8.33487 25.5168C7.46141 23.3289 7.29127 21.0512 8.75926 19.3746H8.75863Z" fill="url(#paint4_linear_9_204)"/>
<path d="M25.9597 29.2205C27.9425 31.1774 31.1359 31.1559 33.0916 29.1724L36.7998 25.413C37.6486 23.2157 38.0673 20.8956 36.5816 19.2354L35.0188 17.7511C34.1725 16.7325 33.466 15.5645 32.7228 15.1394L32.4806 15.4222L25.9091 22.0838C23.9534 24.0673 23.9749 27.2617 25.9591 29.2205H25.9597Z" fill="url(#paint5_linear_9_204)"/>
<path d="M25.8117 8.96624L32.4167 15.4855C32.4193 15.4855 32.4212 15.4861 32.4224 15.4874L32.7905 15.8436L36.5102 11.7969C38.0958 10.0918 37.6151 6.67021 36.6284 5.48139L36.557 5.38838L32.8999 1.78015C30.9158 -0.178651 27.7224 -0.15714 25.7643 1.82824C23.808 3.81109 23.8295 7.00554 25.8123 8.96624H25.8117Z" fill="url(#paint6_linear_9_204)"/>
<path d="M32.4167 15.4855L32.4015 15.5013L32.4167 15.4855L32.399 15.4684L32.4167 15.4855Z" fill="url(#paint7_linear_9_204)"/>
<path d="M36.7328 25.4794L36.7758 25.4358C37.6246 23.2384 37.7694 20.9589 36.2837 19.2987L34.8423 17.8764C33.996 16.8578 33.1643 15.9125 32.4218 15.4874L32.418 15.4842L36.218 11.6318C37.8036 9.92666 37.6145 6.67084 36.6278 5.48202L36.5121 5.36813L36.5051 5.37509C36.5298 5.39914 36.5544 5.43077 36.5804 5.45987C36.5892 5.47189 36.6 5.48581 36.6082 5.49784C37.1015 6.09193 37.3893 7.18901 37.3621 8.36328C37.3431 9.1301 37.1679 10.5733 36.1983 11.6159L32.3984 15.4684L32.4161 15.4855L32.4003 15.5013L32.4091 15.5101C33.1725 15.9454 34.0536 16.9672 34.8227 17.8922L36.2654 19.3164C37.9073 21.1518 37.4367 23.6529 36.7518 25.4269L36.7315 25.4794H36.7328Z" fill="url(#paint8_linear_9_204)"/>
<path d="M36.2837 19.2987L32.4218 15.4874L32.418 15.4836L36.218 11.6311C37.8036 9.9254 37.6145 6.66958 36.6278 5.48139L36.5121 5.36751L36.5222 5.35675L43.8128 12.615C44.8824 13.6703 45.2277 15.1811 44.8545 16.5326C44.6724 17.145 44.3454 17.7258 43.8647 18.213L40.1621 21.9845L37.0427 25.1656L36.7765 25.4358C37.6252 23.2384 37.7701 20.9589 36.2844 19.2987H36.2837Z" fill="url(#paint9_linear_9_204)"/>
</g>
<defs>
<filter id="filter0_d_9_204" x="0" y="0.325592" width="47" height="32.3488" filterUnits="userSpaceOnUse" color-interpolation-filters="sRGB">
<feFlood flood-opacity="0" result="BackgroundImageFix"/>
<feColorMatrix in="SourceAlpha" type="matrix" values="0 0 0 0 0 0 0 0 0 0 0 0 0 0 0 0 0 0 127 0" result="hardAlpha"/>
<feOffset dx="1" dy="1"/>
<feGaussianBlur stdDeviation="0.5"/>
<feColorMatrix type="matrix" values="0 0 0 0 0 0 0 0 0 0 0 0 0 0 0 0 0 0 0.25 0"/>
<feBlend mode="normal" in2="BackgroundImageFix" result="effect1_dropShadow_9_204"/>
<feBlend mode="normal" in="SourceGraphic" in2="effect1_dropShadow_9_204" result="shape"/>
</filter>
<linearGradient id="paint0_linear_9_204" x1="696.802" y1="3575.64" x2="708.407" y2="3573.39" gradientUnits="userSpaceOnUse">
<stop stop-color="#9598EF"/>
<stop offset="1" stop-color="#6366F2"/>
</linearGradient>
<linearGradient id="paint1_linear_9_204" x1="672.166" y1="-3563.51" x2="683.77" y2="-3561.36" gradientUnits="userSpaceOnUse">
<stop stop-color="#6366F2"/>
<stop offset="1" stop-color="#05ACF1"/>
</linearGradient>
<linearGradient id="paint2_linear_9_204" x1="12.6335" y1="16.8839" x2="12.6568" y2="16.8852" gradientUnits="userSpaceOnUse">
<stop stop-color="#6366F2"/>
<stop offset="1" stop-color="#05ACF1"/>
</linearGradient>
<linearGradient id="paint3_linear_9_204" x1="1.58079" y1="-78.0966" x2="15.7984" y2="-78.0991" gradientUnits="userSpaceOnUse">
<stop stop-color="#6366F2"/>
<stop offset="1" stop-color="#05ACF1"/>
</linearGradient>
<linearGradient id="paint4_linear_9_204" x1="1.46342" y1="-115.523" x2="15.657" y2="-115.501" gradientUnits="userSpaceOnUse">
<stop stop-color="#6366F2"/>
<stop offset="1" stop-color="#05ACF1"/>
</linearGradient>
<linearGradient id="paint5_linear_9_204" x1="-669.527" y1="3568.97" x2="-681.048" y2="3566.67" gradientUnits="userSpaceOnUse">
<stop stop-color="#0FB9D7"/>
<stop offset="0.76" stop-color="#9ECE6B"/>
</linearGradient>
<linearGradient id="paint6_linear_9_204" x1="3339.95" y1="937.065" x2="3336.86" y2="948.015" gradientUnits="userSpaceOnUse">
<stop stop-color="#00EFC8"/>
<stop offset="1" stop-color="#2C94EA"/>
</linearGradient>
<linearGradient id="paint7_linear_9_204" x1="34.2978" y1="15.8675" x2="34.2943" y2="15.89" gradientUnits="userSpaceOnUse">
<stop stop-color="#00EFC8"/>
<stop offset="1" stop-color="#2C94EA"/>
</linearGradient>
<linearGradient id="paint8_linear_9_204" x1="126.987" y1="16.8986" x2="125.538" y2="31.0341" gradientUnits="userSpaceOnUse">
<stop stop-color="#00EFC8"/>
<stop offset="1" stop-color="#2C94EA"/>
</linearGradient>
<linearGradient id="paint9_linear_9_204" x1="167.389" y1="21.9732" x2="165.919" y2="36.0778" gradientUnits="userSpaceOnUse">
<stop stop-color="#00EFC8"/>
<stop offset="1" stop-color="#2C94EA"/>
</linearGradient>
<clipPath id="clip0_9_204">
<rect width="45" height="30.3488" fill="white" transform="translate(0 0.325592)"/>
</clipPath>
</defs>
</svg>
